<?xml version="1.0" encoding="UTF-8"?>
<svg id="Calque_2" xmlns="http://www.w3.org/2000/svg" viewBox="0 0 87.66 90.6">
  <defs>
    <style>
      .cls-1 {
        fill: #fff;
      }
    </style>
  </defs>
  <g id="Calque_1-2" data-name="Calque_1">
    <path class="cls-1" d="M42.34,69.63c1.2,2.37-2.33,5.2-1.88,10.16.52,5.68,10.91,10.09,19.19,10.73,2.07.16,18.83,1.18,25.59-11.29,5.09-9.39.65-19.3,0-20.7-2.85-6.1-9.34-13.33-17.31-13.74-10.25-.52-13.55,10.71-30.11,13.74-5.17.94-10.47.88-10.72-.19-.34-1.43,8.68-3.64,19.38-10.16,6.09-3.71,10.03-7.17,14.68-11.29,8.61-7.64,28.41-25.19,24.65-32.36-1.07-2.05-6.05-2.56-15.99-3.58-11.32-1.16-17.08-1.68-21.83.94-6.65,3.68-9.27,10.6-9.78,12.04-3.52,9.92,2.8,14.55-.94,26.34-1.36,4.29-3.45,7.62-6.21,10.16-3.24,2.98-8.69,6.07-10.54,4.52-1.78-1.5,1.37-5.94,3.2-15.62,1.55-8.22,2.71-14.34-.75-18.63-3.65-4.52-11.87-6.33-17.31-2.82C-.1,21.6-.02,29.49,0,32.19c.08,7.67,4.3,13.78,6.21,16.56,3.18,4.61,5.16,5.2,7.15,9.97,1.66,3.98,1.23,5.82,3.2,7.71,2.09,2.01,4.87,2.15,10.72,2.07,13.48-.18,14.16-.63,15.05,1.13Z"/>
  </g>
</svg>