<?xml version="1.0" encoding="UTF-8"?>
<svg id="Calque_2" xmlns="http://www.w3.org/2000/svg" viewBox="0 0 97.32 74.02">
  <defs>
    <style>
      .cls-1 {
        fill: #ecff9c;
      }
    </style>
  </defs>
  <g id="Calque_1-2" data-name="Calque_1">
    <path class="cls-1" d="M23.95,21.8c1.34-2.97-1.12-8.62-.14-12.27.82-9.82,15.03-12.96,20.4-5.08,1.32,1.7,2.74,4.41,3.77,5.88,3.53,4.34,10.84-5.1,15.45-6.05,8.38-3.95,17.11-.07,17.56,7.28.32,5.12-3.53,9.5-6.06,13.43-4.75,8.34,8.69,9.3,14.34,10.78,10.47,1.24,9.87,8.44,3.08,13.53-4.67,3.77-11.38,4.83-16.87,4.22-6.39-.64-9.74-.72-8.93,4.35.53,3.02,2.68,7.11,2.71,10.46-.32,8.28-11.86,6.27-16.27,1.89-2.01-1.6-3.78-3.8-5.57-5.29-2.52-2.23-4.85-.88-8.88,1.92-5.02,3.7-12.29,6.53-18.08,3.08-10.39-6.37-3.23-15.86,4.34-20.5,1.77-1.47-2.47-2.14-8.73-4.9-5.51-2.33-11.39-6.44-14.13-11.12-5.59-8.69,1.69-15.04,11.44-12.66,4.64.77,8.7,2.19,10.14,1.37l.43-.33Z"/>
  </g>
</svg>