<?xml version="1.0" encoding="UTF-8"?>
<svg id="Calque_2" xmlns="http://www.w3.org/2000/svg" viewBox="0 0 131.57 131.14">
  <defs>
    <style>
      .cls-1 {
        fill: #5f663e;
      }

      .cls-2 {
        fill: #fff;
      }
    </style>
  </defs>
  <g id="Calque_1-2" data-name="Calque_1">
    <g>
      <path class="cls-2" d="M28.72,44.91c.47-4.38-5.08-10.58-5.35-15.67-3.1-12.93,13.8-22.96,24.02-15.13,2.41,1.62,5.38,4.5,7.31,5.95,6.36,4.08,11.75-11.12,17.26-14.28,9.08-8.6,21.91-7.31,25.59,1.93,2.58,6.43-.51,13.67-2.1,19.77-2.58,12.71,15.07,8.26,22.94,7.78,13.95-2.83,16.22,6.65,9.66,16.05-4.39,6.81-12.56,10.99-19.86,12.53-8.46,1.88-12.79,3.19-9.61,9.35,1.95,3.65,6.43,7.98,7.89,12.27,3.08,10.76-12.57,13.05-20.07,9.28-3.25-1.21-6.45-3.28-9.38-4.43-4.17-1.8-6.59.92-10.58,6.21-4.88,6.86-13,13.56-21.88,11.58-16.01-3.79-10.84-18.97-3.08-28.12,1.65-2.63-4.07-1.7-13.26-2.59-8.06-.67-17.33-3.45-22.81-8.3-10.84-8.79-4.18-20,9.33-21.06,6.27-.97,12.08-.86,13.58-2.52l.41-.61Z"/>
      <path class="cls-2" d="M81.84,87.35c.01,8.13-.04,16.26.05,24.38.04,3.68.31,7.41,1.96,10.75,1.57,3.17,4.41,5.4,7.98,5.63,1.69.11,3.12-1.51,3.12-3.12,0-1.78-1.43-3.02-3.12-3.12.44.03-.4-.08-.47-.11.38.12-.14-.07-.28-.14-.42-.24-.54-.35-1-.89-.49-.56-1.02-1.71-1.29-2.62-.86-2.95-.66-6.18-.67-9.22-.01-7.18-.03-14.35-.04-21.53,0-4.02-6.26-4.03-6.25,0h0Z"/>
      <path class="cls-2" d="M56.34,93.99c.57,3.32,1.36,6.7,1.64,10.06.11,1.37.15,2.79-.42,4.05s-1.49,2.09-2.38,3.06c-2.15,2.34-3.88,4.9-4.69,8.02s-.74,6.57.3,9.67c.54,1.6,2.15,2.65,3.84,2.18,1.56-.43,2.72-2.24,2.18-3.84-.87-2.58-.86-5.07.1-7.64s3.29-4.42,4.98-6.66c2.08-2.76,2.64-6.11,2.27-9.49-.41-3.71-1.17-7.39-1.8-11.06-.28-1.67-2.33-2.6-3.84-2.18-1.76.48-2.47,2.17-2.18,3.84h0Z"/>
      <path class="cls-1" d="M59.74,49.57c3.22,0,3.22-5,0-5s-3.22,5,0,5h0Z"/>
      <path class="cls-1" d="M77.21,45.54c3.22,0,3.22-5,0-5s-3.22,5,0,5h0Z"/>
      <path class="cls-1" d="M64.9,57.41c1.87,1.68,4.42,2.23,6.82,1.53,2.1-.61,4.29-1.43,4.95-3.74.44-1.55-1.97-2.21-2.41-.66-.16.56-.47.89-1.05,1.22-.61.34-1.35.55-2.15.78-1.53.45-3.17.2-4.39-.89-.5-.45-1.27-.5-1.77,0-.46.46-.5,1.32,0,1.77h0Z"/>
    </g>
  </g>
</svg>