<?xml version="1.0" encoding="UTF-8"?>
<svg id="Calque_2" xmlns="http://www.w3.org/2000/svg" viewBox="0 0 112.85 95">
  <defs>
    <style>
      .cls-1 {
        fill: #fff;
      }
    </style>
  </defs>
  <g id="Calque_1-2" data-name="Calque_1">
    <g>
      <path class="cls-1" d="M49.3,9.5c1.37,7.7,5.91,14.78,10.79,21.1,6.44,8.36,44.68,49.04,52.7,35.87.86-6.86-8.62-13.5-13.75-18.68-13.29-11.8-22.52-27.28-33.99-41.19-6.96-8.42-17.49-9.94-15.82,2.39l.07.51Z"/>
      <path class="cls-1" d="M5.93,71.46c7.13-2.71,15.64-2.63,23.72-1.91,10.69.94,66.81,10.95,60.79,23.73-5.11,4.05-16.2-.12-23.51-1.6-17.59-4.63-35.78-4.26-54.01-6.42-11.05-1.32-18.56-8.84-7.46-13.6l.47-.19Z"/>
      <path class="cls-1" d="M17.65,40.77c3.4,7.97,24.17,18.18,30.88,22.44,9.31,5.9,50.09,30.18,54.88,12.52-.9-7.91-12.32-11.57-18.92-15.3-16.66-7.87-36.15-18.06-51.48-28.97-9.31-6.6-20.47-4.2-15.57,8.78l.21.54Z"/>
    </g>
  </g>
</svg>